M48
; DRILL file {KiCad (5.1.6)-1} date 07/26/20 20:31:52
; FORMAT={-:-/ absolute / inch / decimal}
; #@! TF.CreationDate,2020-07-26T20:31:52-07:00
; #@! TF.GenerationSoftware,Kicad,Pcbnew,(5.1.6)-1
; #@! TF.FileFunction,Plated,1,2,PTH
FMAT,2
INCH
T1C0.0157
T2C0.0217
T3C0.0300
T4C0.0315
T5C0.0394
T6C0.0949
T7C0.1260
%
G90
G05
T1
X2.6354Y-2.4516
X2.6614Y-2.1598
X2.9311Y-2.6933
X2.939Y-4.2059
X2.963Y-4.1
X3.0008Y-5.8654
X3.0016Y-5.4752
X3.0047Y-3.1126
X3.0189Y-3.9941
X3.0217Y-5.7012
X3.0669Y-4.4374
X3.0669Y-5.3921
X3.1213Y-3.5531
X3.1409Y-3.4835
X3.1488Y-2.1457
X3.2055Y-4.3091
X3.2122Y-4.3965
X3.2346Y-3.7031
X3.2787Y-5.0067
X3.2787Y-5.528
X3.3252Y-5.739
X3.3406Y-5.8654
X3.3685Y-4.5035
X3.3827Y-3.2917
X3.5406Y-2.3315
X3.5606Y-5.3992
X3.6106Y-2.1638
X3.6264Y-4.8909
X3.6366Y-5.4992
X3.7583Y-4.5134
X3.7681Y-3.9839
X3.8181Y-2.3437
X3.8319Y-3.6933
X3.8382Y-5.5122
X3.8839Y-2.5913
X3.8984Y-5.7571
X3.9181Y-4.9827
X3.9898Y-4.8626
X4.024Y-5.6236
X4.0697Y-2.5173
X4.2138Y-3.0118
X4.2539Y-2.1579
X4.3177Y-4.9988
X4.3402Y-5.1957
X4.3756Y-4.839
X4.4217Y-4.3957
X4.4453Y-4.0299
X4.4476Y-2.5472
X4.4606Y-3.8004
X4.4772Y-2.735
X4.5134Y-3.4776
X4.5815Y-5.6398
X4.6291Y-2.9846
X4.6697Y-2.2937
X4.6776Y-2.5134
X4.9035Y-2.3516
X4.9256Y-5.2
X4.9736Y-3.2
X4.9972Y-3.298
X5.0209Y-3.3988
X5.0445Y-3.5004
X5.0681Y-3.6008
X5.0917Y-3.6949
X5.1098Y-4.7016
X5.1106Y-2.663
X5.1154Y-3.8008
X5.1323Y-4.5937
X5.139Y-3.9008
X5.1504Y-4.498
X5.1626Y-4.0004
X5.1705Y-4.0996
X5.1807Y-4.3961
X5.2185Y-4.2398
X5.298Y-5.0315
X5.3591Y-2.1516
X5.402Y-5.0598
X5.4921Y-3.2402
X5.4992Y-3.3453
X5.5059Y-3.4465
X5.5059Y-3.5445
X5.5219Y-4.9113
X5.5228Y-5.7657
X5.5228Y-5.8614
X5.6Y-5.1575
X5.6508Y-2.9929
X5.6898Y-4.6996
X5.702Y-4.8358
X5.7087Y-5.763
X5.7106Y-4.6004
X5.7343Y-4.2976
X5.7559Y-4.5039
X5.7579Y-4.2016
X5.7618Y-5.2634
X5.763Y-2.5232
X5.7646Y-2.3236
X5.7772Y-4.0988
X5.7858Y-4.3961
X5.8287Y-5.7425
X5.8413Y-4.1622
X5.9098Y-5.1035
X5.9138Y-4.822
X5.9732Y-3.376
X6.0169Y-2.1236
X6.1594Y-4.8358
X6.1949Y-2.6394
X6.3787Y-2.6193
X6.4374Y-3.7256
X6.4402Y-3.6579
X6.4425Y-3.5268
X6.4634Y-3.8657
X6.4827Y-3.1744
X6.5272Y-3.5295
X6.5335Y-3.6504
X6.5378Y-5.2303
X6.5402Y-3.7189
X6.5413Y-3.8437
X6.6177Y-3.4996
X6.6622Y-3.8465
X6.6921Y-3.7035
X6.7205Y-3.5736
X6.7476Y-3.8075
X6.7929Y-3.2747
X6.7929Y-3.3322
X6.7929Y-3.3632
X6.7929Y-3.4802
X6.8461Y-4.5539
X6.8646Y-5.6602
X7.0004Y-5.2087
X7.1394Y-4.3642
X7.1543Y-4.2543
X7.1626Y-4.452
X7.178Y-2.6154
X7.1835Y-3.9499
X7.2697Y-2.8231
X7.3732Y-5.6598
X7.3965Y-2.1669
X7.3984Y-2.5717
X7.4315Y-2.2106
X7.4319Y-2.6019
X7.4654Y-2.6342
X7.4657Y-2.2444
X7.5232Y-5.2181
X7.53Y-5.061
X7.53Y-5.353
X7.5311Y-5.474
X7.744Y-4.987
X7.744Y-5.67
X7.764Y-3.934
X7.802Y-4.547
X7.8299Y-3.2566
X7.8299Y-3.4704
X7.8299Y-3.7287
X7.8299Y-3.7865
X7.9122Y-3.5882
X7.932Y-4.917
X7.94Y-4.65
X7.94Y-4.76
X7.98Y-4.65
X7.9906Y-5.6118
X8.038Y-4.939
X8.04Y-5.249
X8.152Y-4.092
X8.3189Y-5.8311
X8.3287Y-2.1697
T2
X5.85Y-2.35
X5.85Y-2.4
X5.85Y-2.45
X4.761Y-2.35
X4.761Y-2.4
X4.761Y-2.45
X3.65Y-2.35
X3.65Y-2.4
X3.65Y-2.45
T3
X2.77Y-5.5909
X2.77Y-5.7091
X2.8881Y-5.5909
X2.8881Y-5.7091
T4
X6.2992Y-4.366
X6.6992Y-4.366
X3.3016Y-4.25
X3.4Y-4.25
X3.1Y-5.45
X3.1Y-5.85
X3.9016Y-4.65
X4.0Y-4.65
X6.3585Y-3.7812
X6.3585Y-3.8796
X3.9016Y-3.65
X4.0Y-3.65
X7.725Y-4.7016
X7.725Y-4.8
X3.35Y-2.15
X3.75Y-2.15
X3.3Y-4.85
X3.7Y-4.85
X3.9Y-4.45
X4.3Y-4.45
X6.5992Y-4.176
X6.6976Y-4.176
X6.2992Y-4.566
X6.6992Y-4.566
X3.3016Y-4.65
X3.4Y-4.65
X6.675Y-5.275
X7.075Y-5.275
X7.6774Y-4.0328
X7.6774Y-4.1312
X7.91Y-3.2312
X8.0085Y-3.2312
X2.65Y-2.55
X3.05Y-2.55
X5.55Y-2.15
X5.95Y-2.15
X3.9Y-3.95
X4.3Y-3.95
X8.0128Y-3.9127
X8.0128Y-4.3127
X3.9024Y-5.4646
X4.0008Y-5.4646
X3.9Y-3.45
X4.3Y-3.45
X3.3016Y-3.85
X3.4Y-3.85
X8.1628Y-4.3127
X8.3596Y-4.3127
X7.1596Y-4.0328
X7.1596Y-4.1312
X2.8516Y-5.35
X2.95Y-5.35
X6.3585Y-3.5328
X6.3585Y-3.6312
X3.3Y-5.25
X3.7Y-5.25
X3.3Y-4.45
X3.7Y-4.45
X4.2Y-5.1
X4.2984Y-5.1
X3.2Y-5.45
X3.2Y-5.85
X3.3016Y-3.45
X3.4Y-3.45
X4.2Y-3.15
X4.2984Y-3.15
X4.2Y-3.65
X4.2984Y-3.65
X8.1628Y-3.8627
X8.3596Y-3.8627
X3.3Y-5.1
X3.7Y-5.1
X3.9Y-4.3
X4.3Y-4.3
X3.3Y-4.05
X3.7Y-4.05
X3.6Y-3.85
X3.6984Y-3.85
X4.2Y-4.65
X4.2984Y-4.65
X7.8628Y-4.0312
X7.8628Y-4.4312
X3.6Y-4.65
X3.6984Y-4.65
X3.9016Y-4.15
X4.0Y-4.15
X4.2Y-4.15
X4.2984Y-4.15
X6.31Y-3.3312
X6.4085Y-3.3312
X6.6085Y-3.5891
X6.6085Y-3.7812
X3.9Y-5.275
X4.3Y-5.275
X2.85Y-2.15
X3.25Y-2.15
X3.9Y-3.3
X4.3Y-3.3
X3.9Y-4.85
X4.3Y-4.85
X3.6Y-4.25
X3.6984Y-4.25
X6.2992Y-4.466
X6.6992Y-4.466
X7.45Y-5.6016
X7.45Y-5.7
X6.775Y-5.425
X6.775Y-5.525
X6.775Y-5.625
X6.775Y-5.725
X7.075Y-5.425
X7.075Y-5.525
X7.075Y-5.625
X7.075Y-5.725
X3.3016Y-3.0661
X3.4Y-3.0661
X7.2Y-5.4266
X7.2Y-5.525
X6.2969Y-4.1786
X6.3953Y-4.1786
X7.2Y-5.65
X7.2Y-5.7484
X6.6085Y-3.3312
X6.7069Y-3.3312
X7.45Y-5.3016
X7.45Y-5.4
X3.95Y-2.15
X4.35Y-2.15
X5.05Y-2.15
X5.45Y-2.15
X3.3Y-3.65
X3.7Y-3.65
X3.9Y-5.1
X3.9984Y-5.1
X4.85Y-2.55
X5.25Y-2.55
X7.45Y-5.0016
X7.45Y-5.1
X3.6Y-3.45
X3.6984Y-3.45
X3.9016Y-3.15
X4.0Y-3.15
X6.8085Y-3.8826
X6.8085Y-3.981
X7.2961Y-2.6326
X7.2961Y-2.731
X3.75Y-2.55
X4.15Y-2.55
X3.9Y-3.8
X4.3Y-3.8
X4.45Y-2.15
X4.85Y-2.15
X3.3Y-3.25
X3.7Y-3.25
X3.6Y-3.0571
X3.6984Y-3.0571
T5
X7.6Y-5.0
X7.6Y-5.1
X7.6Y-5.2
X7.6Y-5.3
X7.6Y-5.4
X7.6Y-5.5
X7.6Y-5.6
X7.6Y-5.7
X7.9Y-5.0
X7.9Y-5.1
X7.9Y-5.2
X7.9Y-5.3
X7.9Y-5.4
X7.9Y-5.5
X7.9Y-5.6
X7.9Y-5.7
X5.35Y-2.355
X5.35Y-2.455
X5.35Y-2.555
X5.65Y-2.355
X5.65Y-2.455
X5.65Y-2.555
X4.25Y-2.35
X4.25Y-2.45
X4.25Y-2.55
X4.55Y-2.35
X4.55Y-2.45
X4.55Y-2.55
X3.15Y-2.35
X3.15Y-2.45
X3.15Y-2.55
X3.45Y-2.35
X3.45Y-2.45
X3.45Y-2.55
X8.125Y-5.0063
X8.125Y-5.1154
X8.125Y-5.2244
X8.125Y-5.3335
X8.125Y-5.4425
X8.2368Y-5.0608
X8.2368Y-5.1699
X8.2368Y-5.2789
X8.2368Y-5.388
X5.3Y-3.1
X5.3Y-3.2
X5.3Y-3.3
X5.3Y-3.4
X5.3Y-3.5
X5.3Y-3.6
X5.3Y-3.7
X5.3Y-3.8
X5.3Y-3.9
X5.3Y-4.0
X5.3Y-4.1
X5.3Y-4.2
X5.3Y-4.3
X5.3Y-4.4
X5.3Y-4.5
X5.3Y-4.6
X5.3Y-4.7
X5.3Y-4.8
X5.4Y-3.1
X5.4Y-3.2
X5.4Y-3.3
X5.4Y-3.4
X5.4Y-3.5
X5.4Y-3.6
X5.4Y-3.7
X5.4Y-3.8
X5.4Y-3.9
X5.4Y-4.0
X5.4Y-4.1
X5.4Y-4.2
X5.4Y-4.3
X5.4Y-4.4
X5.4Y-4.5
X5.4Y-4.6
X5.4Y-4.7
X5.4Y-4.8
X2.6632Y-3.2359
X2.6632Y-3.3449
X2.6632Y-3.454
X2.6632Y-3.563
X2.6632Y-3.6721
X2.6632Y-3.7811
X2.6632Y-3.8902
X2.6632Y-3.9993
X2.6632Y-4.1083
X2.6632Y-4.2174
X2.6632Y-4.3264
X2.6632Y-4.4355
X2.775Y-3.1813
X2.775Y-3.2904
X2.775Y-3.3994
X2.775Y-3.5085
X2.775Y-3.6176
X2.775Y-3.7266
X2.775Y-3.8357
X2.775Y-3.9447
X2.775Y-4.0538
X2.775Y-4.1628
X2.775Y-4.2719
X2.775Y-4.3809
X2.775Y-4.49
T6
X2.5999Y-5.5059
X2.5999Y-5.7941
T7
X8.1809Y-4.7323
X8.1809Y-5.7165
X2.7191Y-2.9085
X2.7191Y-4.7628
T0
M30
